<svg xmlns="http://www.w3.org/2000/svg" xmlns:xlink="http://www.w3.org/1999/xlink" width="1920" height="1080" viewBox="0 0 1920 1080"><defs><linearGradient id="a" x1="0.444" y1="2.08" x2="0.444" y2="0.698" gradientUnits="objectBoundingBox"><stop offset="0" stop-color="gray" stop-opacity="0.251"/><stop offset="0.54" stop-color="gray" stop-opacity="0.122"/><stop offset="1" stop-color="gray" stop-opacity="0.102"/></linearGradient><linearGradient id="b" x1="0.027" y1="4.202" x2="0.027" y2="3.205" xlink:href="#a"/><linearGradient id="c" x1="0.684" y1="0.372" x2="0.684" y2="-0.628" xlink:href="#a"/><linearGradient id="d" x1="1.326" y1="-2.088" x2="1.326" y2="-3.089" xlink:href="#a"/><linearGradient id="e" x1="0.5" y1="1" x2="0.5" y2="0" xlink:href="#a"/><linearGradient id="f" x1="-8.568" y1="1" x2="-8.568" y2="0" xlink:href="#a"/><linearGradient id="g" x1="0.5" y1="1" x2="0.5" y2="0" xlink:href="#a"/><linearGradient id="h" x1="0.5" y1="1" x2="0.5" gradientUnits="objectBoundingBox"><stop offset="0" stop-color="#b3b3b3" stop-opacity="0.251"/><stop offset="0.54" stop-color="#b3b3b3" stop-opacity="0.102"/><stop offset="1" stop-color="#b3b3b3" stop-opacity="0.051"/></linearGradient><linearGradient id="i" x1="0.5" x2="0.5" y2="0" xlink:href="#h"/><clipPath id="o"><rect width="1920" height="1080"/></clipPath></defs><g id="n" clip-path="url(#o)"><g transform="translate(959.672 165.977)"><g opacity="0.5"><rect width="547.37" height="396.16" transform="translate(401.141 541.268) rotate(-81.42)" fill="url(#a)"/></g><rect width="535.27" height="386.08" transform="translate(407.334 534.044) rotate(-81.42)" fill="#f5f5f5"/><rect width="278.65" height="16.89" transform="translate(503.395 241.969) rotate(8.58)" fill="#e0e0e0"/><rect width="278.65" height="16.89" transform="translate(497.097 283.712) rotate(8.58)" fill="#e0e0e0"/><rect width="143.55" height="16.89" transform="translate(657.134 128.529) rotate(8.58)" fill="#e0e0e0"/><rect width="118.22" height="16.89" transform="translate(663.364 172.173) rotate(8.58)" fill="#62d2b2"/><rect width="244.88" height="16.89" transform="translate(490.793 325.461) rotate(8.58)" fill="#e0e0e0"/><rect width="211.1" height="16.89" transform="translate(484.488 367.211) rotate(8.58)" fill="#e0e0e0"/><rect width="185.77" height="16.89" transform="translate(478.19 408.957) rotate(8.58)" fill="#e0e0e0"/><rect width="236.43" height="16.89" transform="translate(471.893 450.706) rotate(8.58)" fill="#e0e0e0"/><rect width="92.88" height="16.89" transform="translate(465.602 492.45) rotate(8.58)" fill="#62d2b2"/><g opacity="0.5"><path d="M793,227.53a56.36,56.36,0,1,0-93.8,33.16v.25a19.288,19.288,0,0,0,5.71,5l.11-.24c2.27,2.63,12.72,7.87,25.35,9.74h.28c8,1.22,16.89,1.11,25.14-1.87,0,0,.09-.14.24-.4a20.08,20.08,0,0,0,5.8-2.81l.18-.62A56.3,56.3,0,0,0,793,227.53Z" transform="translate(-162.77 -76.03)" fill="url(#b)"/></g><circle cx="54.67" cy="54.67" r="54.67" transform="translate(512.035 186.94) rotate(-81.42)" fill="#f5f5f5"/><path d="M712.1,235.08s-13-.89-13.17,23.09a18.71,18.71,0,0,0,5.54,4.83l10.94-23.43Z" transform="translate(-162.77 -76.03)" fill="#fda57d"/><path d="M753.9,241.39s12.72,3,5.78,25.95a18.71,18.71,0,0,1-6.72,3l-3.55-25.61Z" transform="translate(-162.77 -76.03)" fill="#fda57d"/><path d="M718.46,196.72s-8.82,16.91-11.91,14.73c0,0,28.06,32.73,60.75,9.16a85.9,85.9,0,0,0-9.82-18Z" transform="translate(-162.77 -76.03)" fill="#333"/><circle cx="24.23" cy="24.23" r="24.23" transform="translate(549.098 142.501) rotate(-81.42)" fill="#333"/><path d="M753.65,241.35l-41.8-6.3-6.42,16.13s-3.46,7.39-1.12,11.23,27.79,15.59,49,8a22.05,22.05,0,0,0,2.66-13.85c-1.05-8.14-.47-.64-.47-.64Z" transform="translate(-162.77 -76.03)" opacity="0.1"/><path d="M754.21,241.44l-41.8-6.3L706,251.26s-3.46,7.39-1.12,11.23,27.79,15.59,49,8a22.05,22.05,0,0,0,2.66-13.85c-1.05-8.14-.47-.64-.47-.64Z" transform="translate(-162.77 -76.03)" opacity="0.1"/><path d="M753.9,241.39l-41.8-6.3-6.42,16.13s-3.46,7.39-1.12,11.23,27.79,15.59,49,8a22.05,22.05,0,0,0,2.66-13.85c-1.05-8.14-.47-.64-.47-.64Z" transform="translate(-162.77 -76.03)" fill="#fdd835"/><path d="M725.28,224.29h16.91v15.26a6.73,6.73,0,0,1-6.73,6.73H732a6.73,6.73,0,0,1-6.73-6.73V224.29Z" transform="translate(-119.47 -182.82) rotate(8.58)" opacity="0.1"/><path d="M725.37,223.67h16.91v15.26a6.73,6.73,0,0,1-6.73,6.73H732.1a6.73,6.73,0,0,1-6.73-6.73Z" transform="translate(-119.57 -182.84) rotate(8.58)" fill="#fda57d"/><path d="M726.77,224.94a24.33,24.33,0,0,0,16.71,2.57l.31-2.05-16.72-2.52Z" transform="translate(-162.77 -76.03)" opacity="0.1"/><circle cx="24.23" cy="24.23" r="24.23" transform="translate(548.314 147.698) rotate(-81.42)" fill="#fda57d"/><path d="M717.07,190.81l45.7,6.89s-1.12-19-18.57-20.47S717.07,190.81,717.07,190.81Z" transform="translate(-162.77 -76.03)" fill="#333"/><ellipse cx="4.23" cy="2.25" rx="4.23" ry="2.25" transform="translate(549.715 126.63) rotate(-81.42)" fill="#fda57d"/><ellipse cx="4.23" cy="2.25" rx="4.23" ry="2.25" transform="translate(596.53 133.697) rotate(-81.42)" fill="#fda57d"/><path d="M717,191.43l45.7,6.89s-1.12-19-18.57-20.47S717,191.43,717,191.43Z" transform="translate(-162.77 -76.03)" opacity="0.1"/><g opacity="0.5"><rect width="397.287" height="548.928" transform="matrix(0.987, -0.16, 0.16, 0.987, 0.328, 141.176)" fill="url(#c)"/></g><rect width="386.08" height="535.27" transform="translate(5.636 143.413) rotate(-9.31)" fill="#f5f5f5"/><rect width="278.65" height="16.89" transform="translate(93.991 364.122) rotate(-9.31)" fill="#e0e0e0"/><rect width="278.65" height="16.89" transform="translate(100.821 405.788) rotate(-9.31)" fill="#e0e0e0"/><rect width="143.55" height="16.89" transform="translate(205.465 208.942) rotate(-9.31)" fill="#e0e0e0"/><rect width="118.22" height="16.89" transform="translate(224.788 248.561) rotate(-9.31)" fill="#6c63ff"/><rect width="244.88" height="16.89" transform="translate(107.651 447.453) rotate(-9.31)" fill="#e0e0e0"/><rect width="211.1" height="16.89" transform="translate(114.48 489.108) rotate(-9.31)" fill="#e0e0e0"/><rect width="185.77" height="16.89" transform="translate(121.311 530.78) rotate(-9.31)" fill="#e0e0e0"/><rect width="236.43" height="16.89" transform="translate(128.142 572.435) rotate(-9.31)" fill="#e0e0e0"/><rect width="92.88" height="16.89" transform="translate(134.979 614.105) rotate(-9.31)" fill="#62d2b2"/><g opacity="0.5"><path d="M354.81,311.49a57.94,57.94,0,1,0-81.3,62.06l.08.25a19.829,19.829,0,0,0,7.16,3.06v-.27c3.05,1.86,14.93,3.69,27.88,1.53h.28c8.21-1.33,16.87-4.25,24-9.77a1.638,1.638,0,0,1,.1-.46,20.639,20.639,0,0,0,4.79-4.58v-.66a57.88,57.88,0,0,0,17.01-51.16Z" transform="translate(-162.77 -76.03)" fill="url(#d)"/></g><circle cx="56.2" cy="56.2" r="56.2" transform="translate(70.327 198.446) rotate(-9.31)" fill="#f5f5f5"/><path d="M277.19,346.48s-13,3.25-5.6,26.75a19.24,19.24,0,0,0,6.95,3l3.31-26.38Z" transform="translate(-162.77 -76.03)" fill="#4d8af0"/><path d="M320.07,339.45s13.39-1.09,13.84,23.57a19.24,19.24,0,0,1-5.63,5l-11.56-23.94Z" transform="translate(-162.77 -76.03)" fill="#4d8af0"/><circle cx="24.91" cy="24.91" r="24.91" transform="translate(100.865 205.147) rotate(-9.31)" fill="#333"/><path d="M319.82,339.49l-42.88,7-1.19,17.81s-1,8.33,2.45,11.34,32.12,6.48,50.41-7.68a22.67,22.67,0,0,0-1.77-14.39c-3.6-7.63-.67-.48-.67-.48Z" transform="translate(-162.77 -76.03)" fill="#4d8af0"/><path d="M320.39,339.4l-42.88,7-1.19,17.81s-1,8.33,2.45,11.34,32.12,6.48,50.41-7.68a22.67,22.67,0,0,0-1.77-14.39c-3.6-7.63-.67-.48-.67-.48Z" transform="translate(-162.77 -76.03)" fill="#4d8af0"/><path d="M320.07,339.45l-42.88,7L276,364.29s-1,8.33,2.45,11.34,32.12,6.48,50.41-7.68a22.67,22.67,0,0,0-1.77-14.39c-3.6-7.63-.67-.48-.67-.48Z" transform="translate(-162.77 -76.03)" fill="#4d8af0"/><path d="M289.72,328.54H307.1v15.87a6.73,6.73,0,0,1-6.73,6.73h-3.93a6.73,6.73,0,0,1-6.73-6.73V328.54Z" transform="translate(-213.8 -23.29) rotate(-9.31)" opacity="0.1"/><path d="M289.62,327.9H307v15.87a6.73,6.73,0,0,1-6.73,6.73h-3.93a6.73,6.73,0,0,1-6.73-6.73V327.9Z" transform="translate(-213.7 -23.31) rotate(-9.31)" fill="#fda57d"/><path d="M288.34,331.92a25,25,0,0,0,17.16-2.76l-.35-2.11L288,329.87Z" transform="translate(-162.77 -76.03)" opacity="0.1"/><circle cx="24.91" cy="24.91" r="24.91" transform="translate(101.747 210.484) rotate(-9.31)" fill="#fda57d"/><path d="M268.18,302.22l46.89-7.68s-7.11-18.28-24.63-14.16S268.18,302.22,268.18,302.22Z" transform="translate(-162.77 -76.03)" opacity="0.1"/><path d="M268.07,301.59,315,293.9s-7.11-18.28-24.63-14.16S268.07,301.59,268.07,301.59Z" transform="translate(-162.77 -76.03)" fill="#333"/><ellipse cx="2.327" cy="4.362" rx="2.327" ry="4.362" transform="matrix(0.987, -0.16, 0.16, 0.987, 103.414, 231.457)" fill="#fda57d"/><ellipse cx="2.32" cy="4.35" rx="2.32" ry="4.35" transform="translate(151.137 222.137) rotate(-9.31)" fill="#fda57d"/><g opacity="0.5"><rect width="396.16" height="547.37" transform="translate(282.63 165.47)" fill="url(#e)"/></g><rect width="386.08" height="535.27" transform="translate(287.67 169.5)" fill="#fff"/><g opacity="0.5"><path d="M502,368a59.24,59.24,0,1,1,92.29,49.17v.26a20.28,20.28,0,0,1-6.72,4.28l-.08-.26c-2.77,2.38-14.45,6.19-27.87,6.15h-.29c-8.5,0-17.72-1.5-25.84-5.89,0,0-.07-.16-.18-.45a21.1,21.1,0,0,1-5.59-3.83l-.09-.67A59.18,59.18,0,0,1,502,368Z" transform="translate(-162.77 -76.03)" fill="url(#f)"/></g><circle cx="57.46" cy="57.46" r="57.46" transform="translate(341 234.51)" fill="#f5f5f5"/><path d="M538.69,389.89S525,391,528.62,416a19.67,19.67,0,0,0,6.52,4.15l7.7-26.07Z" transform="translate(-162.77 -76.03)" fill="#be7c5e"/><path d="M583.12,389.89S596.81,391,593.19,416a19.67,19.67,0,0,1-6.52,4.15L579,394Z" transform="translate(-162.77 -76.03)" fill="#be7c5e"/><path d="M539.28,349s-1.05,3.07-2.55,6.62c-3.26,7.76.46,37.58,8.26,40.76,8.75,3.57,20.26,5.85,32.21,1.49,10.39-3.79,13.59-37.73,6.25-46-.86-1-1.76-1.93-2.7-2.87Z" transform="translate(-162.77 -76.03)" fill="#333"/><circle cx="25.47" cy="25.47" r="25.47" transform="translate(373.03 245.73)" fill="#333"/><path d="M582.86,389.89H538.43l-4.15,17.77s-2.44,8.23.59,11.85,31.33,11.85,52.13.59a23.18,23.18,0,0,0,.59-14.81c-2.37-8.29-.59-.59-.59-.59Z" transform="translate(-162.77 -76.03)" opacity="0.1"/><path d="M583.45,389.89H539l-4.15,17.77s-2.44,8.23.59,11.85,31.33,11.85,52.13.59a23.18,23.18,0,0,0,.59-14.81c-2.37-8.29-.59-.59-.59-.59Z" transform="translate(-162.77 -76.03)" opacity="0.1"/><path d="M583.12,389.89H538.69l-4.15,17.77s-2.44,8.23.59,11.85,31.33,11.85,52.13.59a23.18,23.18,0,0,0,.59-14.81c-2.37-8.29-.59-.59-.59-.59Z" transform="translate(-162.77 -76.03)" fill="#3ad29f"/><path d="M389.55,299.11h17.77v16.38a6.73,6.73,0,0,1-6.73,6.73h-4.32a6.73,6.73,0,0,1-6.73-6.73V299.11Z" opacity="0.1"/><path d="M389.55,298.45h17.77v16.38a6.73,6.73,0,0,1-6.73,6.73h-4.32a6.73,6.73,0,0,1-6.73-6.73V298.45Z" fill="#be7c5e"/><path d="M552.35,377a25.58,25.58,0,0,0,17.77,0v-2.18H552.35Z" transform="translate(-162.77 -76.03)" opacity="0.1"/><circle cx="25.47" cy="25.47" r="25.47" transform="translate(373.03 251.26)" fill="#be7c5e"/><path d="M536.91,343.09h48.58s-4.15-19.62-22.51-18.36S536.91,343.09,536.91,343.09Z" transform="translate(-162.77 -76.03)" fill="#333"/><ellipse cx="2.37" cy="4.44" rx="2.37" ry="4.44" transform="translate(371.19 271.21)" fill="#be7c5e"/><ellipse cx="2.37" cy="4.44" rx="2.37" ry="4.44" transform="translate(420.95 271.21)" fill="#be7c5e"/><path d="M536.91,343.74h48.58s-4.15-19.62-22.51-18.36S536.91,343.74,536.91,343.74Z" transform="translate(-162.77 -76.03)" opacity="0.1"/><rect width="278.65" height="16.89" transform="translate(339.15 401.6)" fill="#e0e0e0"/><rect width="278.65" height="16.89" transform="translate(339.15 443.82)" fill="#e0e0e0"/><rect width="143.55" height="16.89" transform="translate(474.26 266.5)" fill="#e0e0e0"/><rect width="118.22" height="16.89" transform="translate(486.92 308.72)" fill="#62d2b2"/><rect width="244.88" height="16.89" transform="translate(339.15 486.04)" fill="#e0e0e0"/><rect width="211.1" height="16.89" transform="translate(339.15 528.26)" fill="#e0e0e0"/><rect width="185.77" height="16.89" transform="translate(339.15 570.49)" fill="#e0e0e0"/><rect width="236.43" height="16.89" transform="translate(339.15 612.71)" fill="#e0e0e0"/><path d="M0,0H92.88V16.89H0Z" transform="translate(339.15 654.93)" fill="#6c63ff"/><g opacity="0.5"><circle cx="84.39" cy="84.39" r="84.39" transform="translate(567.68 579.17)" fill="url(#g)"/></g><circle cx="79.42" cy="79.42" r="79.42" transform="translate(572.65 584.14)" fill="#62d2b2"/><path d="M617.6,652.96l29.78,27.3,42.19-62.04,14.9,12.41-57.09,74.45-42.19-47.15Z" fill="#fff"/></g><g transform="translate(232 142)"><path d="M650,694.81c0-51.76,51.11-99.48,102.87-99.48,7.93,0,15.62-2,23-.16.1-2.26.16-15.54.16-17.82V51.81H328l-92,94.5v611.5H659C649.9,743.37,650,713.15,650,694.81Z" transform="translate(-236 -51.81)" fill="url(#h)"/><path d="M642,704.81a117,117,0,0,1,117-117c3.53,0,7,.17,10.48.47V317h-525V745.81H649.39A116.74,116.74,0,0,1,642,704.81Z" transform="translate(-236 -51.81)" fill="#fcfcfc"/><path d="M533.09,269.19H6.91V94.5L92,5.5H533.09Z" fill="#fcfcfc"/><rect width="142.73" height="10.89" transform="translate(357.59 58.59)" fill="#e0e0e0"/><rect width="142.73" height="10.89" transform="translate(357.59 98.59)" fill="#e0e0e0"/><rect width="142.73" height="10.89" transform="translate(357.59 138.59)" fill="#e0e0e0"/><rect width="142.73" height="10.89" transform="translate(357.59 178.59)" fill="#62d2b2" opacity="0.5"/><rect width="142.73" height="10.89" transform="translate(357.59 218.59)" fill="#e0e0e0"/><rect width="142.73" height="10.89" transform="translate(357.59 258.59)" fill="#e0e0e0"/><rect width="142.73" height="10.89" transform="translate(84.72 343.59)" fill="#62d2b2" opacity="0.5"/><rect width="142.73" height="10.89" transform="translate(84.72 387.13)" fill="#e0e0e0"/><rect width="372.56" height="10.89" transform="translate(84.72 365.36)" fill="#6c63ff" opacity="0.5"/><rect width="142.73" height="10.89" transform="translate(84.72 448.82)" fill="#62d2b2" opacity="0.5"/><rect width="142.73" height="10.89" transform="translate(84.72 492.37)" fill="#e0e0e0"/><rect width="372.56" height="10.89" transform="translate(84.72 470.59)" fill="#e0e0e0"/><rect width="142.73" height="10.89" transform="translate(84.72 554.06)" fill="#6c63ff" opacity="0.5"/><rect width="142.73" height="10.89" transform="translate(84.72 597.6)" fill="#e0e0e0"/><rect width="305.41" height="10.89" transform="translate(84.72 575.83)" fill="#e0e0e0"/><path d="M310,281H50V54l9-11H310Z" fill="#6c63ff"/><path d="M4.91,96.5H94V3.5Z" fill="url(#i)"/><path d="M6.91,94.5H92V5.5Z" fill="#f5f5f5"/><g opacity="0.5"><circle cx="100.13" cy="100.13" r="100.13" transform="translate(527.74 596.12)" fill="url(#e)"/></g><circle cx="93.72" cy="93.72" r="93.72" transform="translate(534.15 602.53)" fill="#3ad29f"/><g opacity="0.5"><path d="M678.44,684.95H639.16V645.68H616.58v39.27H577.3v22.59h39.28v39.28h22.58V707.54h39.28Z" fill="url(#e)"/></g><rect width="19.2" height="85.97" transform="translate(618.27 653.26)" fill="#fff"/><rect width="19.2" height="85.97" transform="translate(670.86 686.65) rotate(90)" fill="#fff"/><path d="M755,739.81c0-51.76,51.11-99.48,102.87-99.48,7.93,0,15.62-2,23-.16.1-2.26.16-15.54.16-17.82V96.81H433l-92,94.5v611.5H764C754.9,788.37,755,758.15,755,739.81Z" transform="translate(-236 -51.81)" fill="url(#h)"/><path d="M747,749.81a117,117,0,0,1,117-117c3.53,0,7,.17,10.48.47V362h-525V790.81H754.39A116.739,116.739,0,0,1,747,749.81Z" transform="translate(-236 -51.81)" fill="#fff"/><path d="M638.09,314.19H111.91V139.5L197,50.5H638.09Z" fill="#fff"/><rect width="142.73" height="10.89" transform="translate(462.59 103.59)" fill="#e0e0e0"/><rect width="142.73" height="10.89" transform="translate(462.59 143.59)" fill="#e0e0e0"/><rect width="142.73" height="10.89" transform="translate(462.59 183.59)" fill="#e0e0e0"/><rect width="142.73" height="10.89" transform="translate(462.59 223.59)" fill="#62d2b2" opacity="0.5"/><rect width="142.73" height="10.89" transform="translate(462.59 263.59)" fill="#e0e0e0"/><rect width="142.73" height="10.89" transform="translate(462.59 303.59)" fill="#e0e0e0"/><rect width="142.73" height="10.89" transform="translate(189.72 388.59)" fill="#6c63ff" opacity="0.5"/><rect width="142.73" height="10.89" transform="translate(189.72 432.13)" fill="#e0e0e0"/><rect width="372.56" height="10.89" transform="translate(189.72 410.36)" fill="#69f0ae" opacity="0.5"/><rect width="142.73" height="10.89" transform="translate(189.72 493.82)" fill="#6c63ff" opacity="0.5"/><rect width="142.73" height="10.89" transform="translate(189.72 537.37)" fill="#e0e0e0"/><rect width="372.56" height="10.89" transform="translate(189.72 515.59)" fill="#e0e0e0"/><rect width="142.73" height="10.89" transform="translate(189.72 599.06)" fill="#62d2b2" opacity="0.5"/><rect width="142.73" height="10.89" transform="translate(189.72 642.6)" fill="#e0e0e0"/><rect width="305.41" height="10.89" transform="translate(189.72 620.83)" fill="#e0e0e0"/><path d="M415,326H155V99l9-11H415Z" fill="#62d2b2"/><path d="M109.91,141.5H199v-93Z" fill="url(#i)"/><path d="M111.91,139.5H197v-89Z" fill="#fcfcfc"/></g></g></svg>